<svg xmlns="http://www.w3.org/2000/svg" version="1.1" xmlns:xlink="http://www.w3.org/1999/xlink" xmlns:svgjs="http://svgjs.dev/svgjs" width="100%" height="100%" viewBox="0 0 1000 600"><rect width="1000" height="600" x="0" y="0" fill="#ffffff"/><g><rect width="333.3333333333333" height="333.3333333333333" rx="13.333333333333334" ry="13.333333333333334" y="158.35950518319441" fill="#000000" transform="matrix(0.9181907702842458,0,0,0.9181907702842458,0,1.5639525261918266)" x="136.13731384277344"/><path d="M348.5709991308289 400.02617940030956L257.0369729940039 400.02617940030956L257.0369729940039 250.02617439095764L348.5709991308289 250.02617439095764L348.5709991308289 265.93345705510103L275.0632370261664 265.93345705510103L275.0632370261664 316.2219585355543L344.27334677879014 316.2219585355543L344.27334677879014 332.1292411996976L275.0632370261664 332.1292411996976L275.0632370261664 384.11889673616616L348.5709991308289 384.11889673616616L348.5709991308289 400.02617940030956Z " fill="#ffffff" transform="matrix(0.9181907702842458,0,0,0.9181907702842458,0,1.5639525261918266)"/><path d="M637.778128576602 397.6434661936781L552.803986503013 397.6434661936781L552.803986503013 258.39337227067267L637.778128576602 258.39337227067267L637.778128576602 273.1606424777881L569.5383790078868 273.1606424777881L569.5383790078868 319.84516461472884L633.7884720853738 319.84516461472884L633.7884720853738 334.61243482184415L569.5383790078868 334.61243482184415L569.5383790078868 382.8761959865627L637.778128576602 382.8761959865627L637.778128576602 397.6434661936781ZM673.075506144829 397.6434661936781L673.075506144829 308.67966762886107L656.3134076920995 308.67966762886107L656.3134076920995 294.7158699095625L673.075506144829 294.7158699095625L673.075506144829 273.96411496560484Q673.075506144829 263.18650124971765 678.6721076116906 256.62019160790464Q684.2410031306966 250.02617601823584 695.6281476994104 250.02617601823584L695.6281476994104 250.02617601823584L711.1711844464868 250.02617601823584L711.1711844464868 263.98997373753446L689.0341321097416 263.98997373753446L689.0341321097416 294.7158699095625L711.1711844464868 294.7158699095625L711.1711844464868 308.67966762886107L689.0341321097416 308.67966762886107L689.0341321097416 397.6434661936781L673.075506144829 397.6434661936781ZM737.7134824922964 397.6434661936781L737.7134824922964 308.67966762886107L720.951384039567 308.67966762886107L720.951384039567 294.7158699095625L737.7134824922964 294.7158699095625L737.7134824922964 273.96411496560484Q737.7134824922964 263.18650124971765 743.3100839591581 256.62019160790464Q748.8789794781642 250.02617601823584 760.2661240468778 250.02617601823584L760.2661240468778 250.02617601823584L775.8091607939543 250.02617601823584L775.8091607939543 263.98997373753446L753.6721084572091 263.98997373753446L753.6721084572091 294.7158699095625L775.8091607939543 294.7158699095625L775.8091607939543 308.67966762886107L753.6721084572091 308.67966762886107L753.6721084572091 397.6434661936781L737.7134824922964 397.6434661936781ZM812.7134833378149 397.6434661936781L796.7548573729022 397.6434661936781L796.7548573729022 294.7158699095625L812.7134833378149 294.7158699095625L812.7134833378149 313.6667382428963L813.7108974606219 313.6667382428963Q816.5091981940528 306.2692501654107 823.6850386886923 300.50641301141445Q830.8608791833318 294.7158699095625 843.439379509843 294.7158699095625L843.439379509843 294.7158699095625L849.6178058816754 294.7158699095625L849.6178058816754 310.67449587447516L840.2531955064316 310.67449587447516Q827.28681190994 310.67449587447516 820.0001476238774 315.5507426970874Q812.7134833378149 320.4546954675553 812.7134833378149 327.82447759718514L812.7134833378149 327.82447759718514L812.7134833378149 397.6434661936781ZM952.9609913836273 397.6434661936781L943.9842642783639 397.6434661936781Q935.0075371731006 397.6434661936781 931.1009985254396 392.85033721463316Q927.2221658256345 388.05720823558823 926.2247517028273 380.88136774094863L926.2247517028273 380.88136774094863L925.2273375800204 380.88136774094863Q921.8472119416188 390.46762569903854 914.0618405941526 395.2607546780835Q906.2764692466866 400.0261777092727 895.4988555307993 400.0261777092727L895.4988555307993 400.0261777092727Q879.1523462959061 400.0261777092727 870.0647953992199 391.6589814568359Q861.0049504503892 383.291785204399 861.0049504503892 368.9123982672641L861.0049504503892 368.9123982672641Q861.0049504503892 354.36677564299475 871.6717403748534 346.58140429552867Q882.3385302993175 338.79603294806265 904.891171853899 338.79603294806265L904.891171853899 338.79603294806265L925.2273375800204 338.79603294806265L925.2273375800204 328.62795008500194Q925.2273375800204 317.6563947341245 919.2428528431782 311.8658516322725Q913.258368106336 306.0753085304205 900.9015153626709 306.0753085304205L900.9015153626709 306.0753085304205Q891.5091990395712 306.0753085304205 885.2199488763157 310.2589066566389Q878.958404660916 314.47021073071306 874.7471005868417 321.45210959036234L874.7471005868417 321.45210959036234L865.1885485766076 312.475382485099Q869.372146702826 304.08048028480636 878.5428154430796 298.20681933938715Q887.7134841833332 292.30545244611216 901.6772819026319 292.30545244611216L901.6772819026319 292.30545244611216Q920.4342086009754 292.30545244611216 930.8239390468821 301.5038271342215Q941.1859635449331 310.67449587447516 941.1859635449331 327.02100510936833L941.1859635449331 327.02100510936833L941.1859635449331 383.6796684743795L952.9609913836273 383.6796684743795L952.9609913836273 397.6434661936781ZM898.10321462924 386.4779692078104L898.10321462924 386.4779692078104Q904.0876993660823 386.4779692078104 909.0747699801174 385.0649658671671Q914.0618405941526 383.6796684743795 917.6359078675445 381.07530937593884Q921.2376810887922 378.49865622535407 923.2325093344062 375.09082463909664Q925.2273375800204 371.710699000695 925.2273375800204 367.7210425094668L925.2273375800204 367.7210425094668L925.2273375800204 350.7650024217471L904.0876993660823 350.7650024217471Q890.3178432817739 350.7650024217471 884.0285931185184 354.7546589129753Q877.7393429552629 358.74431540420346 877.7393429552629 366.3357451166793L877.7393429552629 366.3357451166793L877.7393429552629 370.5193432428977Q877.7393429552629 378.08306700751774 883.2251206307016 382.2943710815919Q888.7108983061404 386.4779692078104 898.10321462924 386.4779692078104Z " fill="#000000" transform="matrix(0.9181907702842458,0,0,0.9181907702842458,0,1.5639525261918266)"/></g></svg>